<svg width="48" height="38" viewBox="0 0 48 38" fill="none" xmlns="http://www.w3.org/2000/svg">
<g clip-path="url(#clip0_40_1482)">
<path d="M39.1517 22.5431C39.1108 22.5431 39.0689 22.539 39.0271 22.5309C38.6389 22.4574 38.3801 22.0607 38.4486 21.6446C38.597 20.7451 38.6722 19.8211 38.6722 18.9002C38.6722 16.9553 38.3439 15.0584 37.6979 13.2603C37.5562 12.8657 37.7388 12.423 38.107 12.2711C38.4743 12.1191 38.8882 12.3159 39.0299 12.7096C39.7397 14.683 40.1003 16.7666 40.1003 18.9002C40.1003 19.9109 40.0175 20.9236 39.8548 21.9108C39.7939 22.282 39.4923 22.5431 39.1527 22.5431H39.1517Z" fill="white"/>
<path d="M36.6427 10.2803C36.4172 10.2803 36.1955 10.166 36.0566 9.95288C33.3194 5.73983 28.8295 3.22486 24.0466 3.22486C19.2638 3.22486 14.8025 5.72556 12.0633 9.9131C11.8369 10.2588 11.3925 10.3425 11.069 10.1008C10.7465 9.85803 10.6685 9.38176 10.894 9.035C13.8996 4.43951 18.8166 1.69507 24.0466 1.69507C29.2767 1.69507 34.2232 4.45583 37.2279 9.07886C37.4533 9.42561 37.3734 9.90189 37.0499 10.1436C36.9253 10.2364 36.7835 10.2813 36.6427 10.2813V10.2803Z" fill="white"/>
<path d="M8.92657 22.4491C8.58501 22.4491 8.2834 22.186 8.22441 21.8127C8.07218 20.8571 7.99512 19.877 7.99512 18.9C7.99512 16.6808 8.3833 14.5207 9.15016 12.4789C9.29763 12.0873 9.71246 11.8976 10.0788 12.0547C10.4441 12.2128 10.6211 12.6584 10.4746 13.0501C9.77621 14.9093 9.42227 16.8776 9.42227 18.9C9.42227 19.7913 9.49268 20.6847 9.63064 21.5547C9.69724 21.9708 9.43559 22.3665 9.04741 22.4369C9.00649 22.444 8.96653 22.4481 8.92657 22.4481V22.4491Z" fill="white"/>
<path d="M15.1517 33.0618C15.008 33.0618 14.8634 33.0159 14.7378 32.92C12.2346 31.0078 10.306 28.3877 9.1576 25.3445C9.01013 24.9529 9.18615 24.5072 9.5515 24.3491C9.91685 24.191 10.3326 24.3797 10.4801 24.7713C11.5257 27.5443 13.284 29.9308 15.5646 31.6737C15.8852 31.9195 15.9604 32.3968 15.7311 32.7405C15.5922 32.9496 15.3724 33.0618 15.1498 33.0618H15.1517Z" fill="white"/>
<path d="M24.0468 36.1072C21.7234 36.1072 19.4818 35.586 17.3849 34.56C17.0262 34.3846 16.8682 33.9308 17.0319 33.5463C17.1955 33.1618 17.6189 32.9935 17.9776 33.1679C19.8872 34.1031 21.9299 34.5774 24.0468 34.5774C26.1638 34.5774 28.0438 34.1399 29.8896 33.276C30.2512 33.1078 30.6717 33.2842 30.8287 33.6717C30.9866 34.0593 30.8211 34.5101 30.4595 34.6783C28.433 35.6268 26.2742 36.1072 24.0459 36.1072H24.0468Z" fill="white"/>
<path d="M32.7335 33.2178C32.5061 33.2178 32.2834 33.1016 32.1445 32.8864C31.9209 32.5386 32.0028 32.0623 32.3282 31.8227C34.5717 30.1674 36.3375 27.885 37.4336 25.2232C37.5925 24.8366 38.0139 24.6612 38.3745 24.8326C38.7351 25.0029 38.8988 25.4547 38.7389 25.8412C37.5363 28.7631 35.5992 31.2679 33.1369 33.0832C33.0132 33.174 32.8724 33.2178 32.7325 33.2178H32.7335Z" fill="white"/>
<path d="M3.58792 18.2126C3.33199 18.2126 3.08461 18.0647 2.95617 17.8046C2.77159 17.4314 2.90479 16.9684 3.25302 16.7705C3.96659 16.3656 4.89424 15.9954 6.01028 15.6701C6.39086 15.5599 6.78285 15.7996 6.88655 16.2075C6.99026 16.6155 6.76572 17.0357 6.38515 17.1468C5.38519 17.4385 4.5327 17.7761 3.92092 18.1228C3.81436 18.183 3.70019 18.2116 3.58792 18.2116V18.2126Z" fill="white"/>
<path d="M24.0464 23.9494C14.8175 23.9494 6.7084 22.8327 3.38598 21.105C3.03109 20.9204 2.88362 20.4635 3.05583 20.0831C3.22804 19.7027 3.65428 19.5446 4.00917 19.7292C7.10419 21.3386 15.1562 22.4196 24.0464 22.4196C32.9367 22.4196 40.4739 21.4171 43.8049 19.8659C44.1665 19.6976 44.587 19.8751 44.744 20.2626C44.901 20.6501 44.7354 21.1009 44.3739 21.2692C40.8774 22.8969 32.8986 23.9494 24.0464 23.9494Z" fill="white"/>
<path d="M44.099 18.1608C43.9906 18.1608 43.8812 18.1343 43.7784 18.0782C43.0782 17.6998 42.2104 17.3204 41.396 17.0369C41.0211 16.9063 40.8156 16.4749 40.9374 16.0731C41.0592 15.6713 41.4617 15.451 41.8365 15.5815C42.7166 15.8875 43.6595 16.2995 44.4216 16.7116C44.7736 16.9023 44.9144 17.3622 44.7375 17.7386C44.6119 18.0047 44.3607 18.1587 44.1 18.1587L44.099 18.1608Z" fill="white"/>
<path d="M8.49248 34.616C8.43825 34.616 8.38401 34.6099 8.32978 34.5956C7.94635 34.4997 7.70754 34.0877 7.79793 33.6767C7.97204 32.8781 8.37165 31.8787 8.98437 30.7048C9.17656 30.3366 9.61137 30.2051 9.95579 30.4111C10.2993 30.6171 10.422 31.0832 10.2298 31.4524C9.68177 32.5018 9.33165 33.3667 9.18798 34.0255C9.11091 34.3784 8.81787 34.616 8.49343 34.616H8.49248Z" fill="white"/>
<path d="M10.5069 36.2163C10.2053 36.2163 9.92458 36.0093 9.82754 35.685C9.70765 35.2831 9.91412 34.8517 10.289 34.7232C13.266 33.7013 19.0822 28.9906 25.1067 22.7215C25.3892 22.4278 25.8412 22.4349 26.1161 22.7378C26.3902 23.0407 26.3835 23.5252 26.1009 23.8199C19.9308 30.2399 13.8949 35.0914 10.7247 36.1806C10.6524 36.2051 10.5792 36.2173 10.5069 36.2173V36.2163Z" fill="white"/>
<path d="M28.3927 21.0357C28.2148 21.0357 28.0359 20.9643 27.8979 20.8215C27.6144 20.5278 27.6058 20.0444 27.8798 19.7405C33.6646 13.3103 38.0783 6.96775 38.8632 3.95814C38.9698 3.55122 39.3627 3.31359 39.7424 3.42782C40.122 3.54204 40.3437 3.96324 40.2371 4.37017C39.3808 7.6531 34.9338 14.1027 28.9064 20.8022C28.7666 20.9582 28.5801 21.0357 28.3927 21.0357Z" fill="white"/>
<path d="M35.5782 4.08553C35.3261 4.08553 35.0816 3.94173 34.9522 3.68779C34.7628 3.31758 34.8894 2.85252 35.2357 2.64957C36.2575 2.04989 37.1338 1.65623 37.8398 1.48081C38.2241 1.38494 38.6076 1.64093 38.6961 2.05295C38.7855 2.46395 38.5467 2.87598 38.1623 2.97083C37.5829 3.11565 36.8284 3.45832 35.9207 3.99171C35.8123 4.05596 35.6943 4.08553 35.5782 4.08553Z" fill="white"/>
<path d="M12.6865 4.18645C12.5685 4.18645 12.4486 4.15484 12.3383 4.08855C11.4611 3.5623 10.718 3.20433 10.1281 3.02483C9.74942 2.90959 9.52964 2.48635 9.63715 2.07942C9.74466 1.67352 10.1395 1.43793 10.5191 1.55317C11.2156 1.7653 12.0624 2.16917 13.0357 2.75355C13.3792 2.95956 13.5019 3.42564 13.3097 3.79483C13.1793 4.04571 12.9367 4.18645 12.6865 4.18645Z" fill="white"/>
<path d="M22.3692 23.9106C22.1894 23.9106 22.0105 23.8382 21.8716 23.6944C21.4881 23.2946 21.1 22.8836 20.7156 22.4716C13.6397 14.8859 8.61615 7.76011 7.9178 4.31502C7.83407 3.90198 8.07859 3.49505 8.46392 3.40531C8.84925 3.31556 9.22888 3.57766 9.3126 3.99071C9.94721 7.11964 14.9346 14.1118 21.725 21.3895C22.1047 21.7964 22.4891 22.2024 22.8677 22.597C23.1503 22.8918 23.156 23.3762 22.881 23.6791C22.7412 23.8331 22.5557 23.9106 22.3692 23.9106Z" fill="white"/>
<path d="M37.6286 36.2306C37.5582 36.2306 37.4859 36.2194 37.4155 36.196C34.8447 35.3342 30.4862 32.0849 25.4588 27.2803C25.1648 26.9989 25.1391 26.5154 25.4007 26.2003C25.6633 25.8852 26.1143 25.8576 26.4083 26.1381C31.2178 30.7346 35.4917 33.9482 37.8408 34.7355C38.2166 34.862 38.4269 35.2903 38.3089 35.6942C38.2137 36.0216 37.9321 36.2306 37.6277 36.2306H37.6286Z" fill="white"/>
<path d="M39.5969 34.6009C39.2734 34.6009 38.9813 34.3643 38.9033 34.0124C38.7691 33.4046 38.458 32.6183 37.9794 31.6759C37.791 31.3047 37.9195 30.8407 38.2648 30.6387C38.6112 30.4368 39.0441 30.5745 39.2325 30.9447C39.771 32.0054 40.1268 32.9191 40.2905 33.6585C40.3818 34.0695 40.1439 34.4816 39.7605 34.5795C39.7053 34.5938 39.6501 34.5999 39.595 34.5999L39.5969 34.6009Z" fill="white"/>
<path d="M10.1985 4.82222H7.13106C6.73716 4.82222 6.41748 4.47954 6.41748 4.05732V0.76929C6.41748 0.347068 6.73716 0.00439453 7.13106 0.00439453H10.1985C10.5924 0.00439453 10.9121 0.347068 10.9121 0.76929V4.05732C10.9121 4.47954 10.5924 4.82222 10.1985 4.82222ZM7.84464 3.29242H9.48491V1.53419H7.84464V3.29242Z" fill="white"/>
<path d="M41.1516 4.81782H38.0842C37.6903 4.81782 37.3706 4.47515 37.3706 4.05293V0.764895C37.3706 0.342673 37.6903 0 38.0842 0H41.1516C41.5455 0 41.8652 0.342673 41.8652 0.764895V4.05293C41.8652 4.47515 41.5455 4.81782 41.1516 4.81782ZM38.7978 3.28803H40.438V1.52979H38.7978V3.28803Z" fill="white"/>
<path d="M3.78101 21.3588H0.713578C0.319683 21.3588 0 21.0162 0 20.5939V17.3059C0 16.8837 0.319683 16.541 0.713578 16.541H3.78101C4.17491 16.541 4.49459 16.8837 4.49459 17.3059V20.5939C4.49459 21.0162 4.17491 21.3588 3.78101 21.3588ZM1.42716 19.829H3.06743V18.0708H1.42716V19.829Z" fill="white"/>
<path d="M10.3811 38H7.31368C6.91978 38 6.6001 37.6573 6.6001 37.2351V33.947C6.6001 33.5248 6.91978 33.1821 7.31368 33.1821H10.3811C10.775 33.1821 11.0947 33.5248 11.0947 33.947V37.2351C11.0947 37.6573 10.775 38 10.3811 38ZM8.02725 36.4702H9.66753V34.7119H8.02725V36.4702Z" fill="white"/>
<path d="M40.7795 38H37.7121C37.3182 38 36.9985 37.6573 36.9985 37.2351V33.947C36.9985 33.5248 37.3182 33.1821 37.7121 33.1821H40.7795C41.1734 33.1821 41.4931 33.5248 41.4931 33.947V37.2351C41.4931 37.6573 41.1734 38 40.7795 38ZM38.4257 36.4702H40.066V34.7119H38.4257V36.4702Z" fill="white"/>
<path d="M47.2864 21.3588H44.2189C43.8251 21.3588 43.5054 21.0162 43.5054 20.5939V17.3059C43.5054 16.8837 43.8251 16.541 44.2189 16.541H47.2864C47.6803 16.541 48 16.8837 48 17.3059V20.5939C48 21.0162 47.6803 21.3588 47.2864 21.3588ZM44.9325 19.829H46.5728V18.0708H44.9325V19.829Z" fill="white"/>
</g>
<defs>
<clipPath id="clip0_40_1482">
<rect width="48" height="38" fill="white"/>
</clipPath>
</defs>
</svg>
