<svg version="1.1" id="Layer_1" xmlns="http://www.w3.org/2000/svg" xmlns:xlink="http://www.w3.org/1999/xlink" x="0px" y="0px"
	 viewBox="0 0 2000 2000" style="enable-background:new 0 0 2000 2000;" xml:space="preserve">
<style type="text/css">
	.st0{fill:#1B1C25;}
	.st1{fill-rule:evenodd;clip-rule:evenodd;fill:#1B1C25;}
</style>
<g>
	<path class="st1" d="M685.23,480.05c-5.03,0.03-9.81,2.19-13.15,5.96c-3.33,3.77-4.91,8.77-4.32,13.77
		c8.51,73-15.56,203.48,65.15,333.07c40.82,65.55,105.14,114.42,141.03,138.39c-41.34,25.15-119.03,82.86-164.1,182.12
		c-65.63,144.53-38.15,330.39-38.15,330.39c1.31,8.77,8.91,15.21,17.77,15.07l664.33-10.52c8.71-0.14,16.02-6.6,17.23-15.24
		c0,0,24.43-174.53-60.96-335.43c-41.39-78-114.37-135.53-154.58-163.1c48.12-24.69,137.2-84.85,166.48-201.98
		c23.33-93.33,24.35-278.08,24.35-278.08c0.02-4.72-1.84-9.25-5.18-12.59c-3.34-3.33-7.87-5.2-12.59-5.17L685.23,480.05
		L685.23,480.05z M704.35,515.31c0,0,504.04-2.62,606.37-3.15c-0.84,47.56-4.78,178.66-23.07,251.81
		c-36.11,144.45-175.02,190.98-175.02,190.98c-6.64,2.23-11.34,8.14-11.99,15.11c-0.66,6.97,2.85,13.66,8.95,17.08
		c0,0,114.58,64.05,169.24,167.05c65.47,123.38,62.04,255.31,58.66,298.98l-632.67,10.03c-4.72-45.48-13.5-183.52,37.22-295.24
		c57.75-127.19,174.13-179.62,174.13-179.62c6.12-2.74,10.15-8.71,10.43-15.4c0.27-6.7-3.26-12.97-9.12-16.21
		c0,0-100.05-55.1-154.54-142.6C692.63,701.28,707.38,587.36,704.35,515.31L704.35,515.31L704.35,515.31z"/>
	<g>
		<path class="st0" d="M1378.95,1630.9H660.84c-45.65,0-82.8-37.14-82.8-82.79s37.14-82.79,82.8-82.79h718.11
			c45.65,0,82.79,37.14,82.79,82.79S1424.6,1630.9,1378.95,1630.9z M660.84,1500.67c-26.16,0-47.43,21.28-47.43,47.43
			s21.28,47.43,47.43,47.43h718.11c26.15,0,47.43-21.28,47.43-47.43s-21.28-47.43-47.43-47.43H660.84z M1324.18,511.98H668.03
			c-45.65,0-82.79-37.14-82.79-82.79c0-45.65,37.14-82.79,82.79-82.79h656.15c45.65,0,82.79,37.14,82.79,82.79
			C1406.97,474.84,1369.83,511.98,1324.18,511.98z M668.03,381.76c-26.15,0-47.43,21.28-47.43,47.43
			c0,26.15,21.28,47.43,47.43,47.43h656.15c26.15,0,47.43-21.28,47.43-47.43c0-26.15-21.28-47.43-47.43-47.43H668.03z"/>
	</g>
	<path class="st1" d="M771.82,740.55c-1.45,5.12-1.56,12.08,0.95,20.41c3.45,11.46,12.61,27.68,26.67,45.46
		c43.78,55.37,135.73,127.8,224.14,122.84c147.81-8.3,235.23-142.38,237.1-227.64c0.17-7.71-2.79-12.89-6.71-16.54
		c-4.11-3.83-10.81-6.91-20.5-5.39c-8.09,1.26-22,7.36-38.34,15.48c-20.34,10.1-45.5,23.32-67.1,29.04
		c-47.4,12.55-114.71,2.81-162.37-8.67c-65.66-15.82-124.49-19.97-157.43-8.98C788.43,713.17,776.23,724.99,771.82,740.55
		L771.82,740.55z M1223.14,721.18c-13.34,71.82-86.55,166.33-201.54,172.78c-77.18,4.33-156.21-61.14-194.43-109.47
		c-7.86-9.95-13.96-19.15-17.75-26.89c-1.44-2.95-2.73-7.13-3.16-8.58c1.34-3.04,4.28-5.05,7.89-6.81
		c4.72-2.3,10.53-3.86,17.19-4.94c30.45-4.94,75.97,0.58,126.04,12.64c52.73,12.7,127.26,22.37,179.71,8.48
		c23.71-6.28,51.44-20.46,73.77-31.55C1214.77,724.9,1219.09,722.94,1223.14,721.18L1223.14,721.18z"/>
	<path class="st1" d="M755.75,1430.89c94.62-2.62,467.31,2.22,523.4-3.61c7.13-0.74,14.2-4.55,19.45-13.03
		c5.19-8.36,9.07-24.64,9.21-45.5c0.23-35.6-9.07-86.19-31.3-126.57c-15.9-28.88-38.38-52.46-67.77-63.54
		c-46.1-17.37-81.01-12-115.83,0c-30.45,10.5-60.77,26.8-100.78,34.13c-36.51,6.69-63.62,3.58-89.83,3.94
		c-29.84,0.41-58.65,4.6-96.13,27.29c-48.48,29.35-79.58,101.95-81.48,142.62C723.31,1416.01,737.73,1431.39,755.75,1430.89
		L755.75,1430.89L755.75,1430.89z M1269.26,1392.62c-71.27,4.88-409.04,0.58-508.53,2.78c-0.2-4.87-0.3-14.19,1.23-21.63
		c6.83-33.21,29.19-79.35,62.52-99.53c37.05-22.43,63.9-22.61,94.18-22.1c23.25,0.38,48.29,1.18,79.84-4.6
		c34.08-6.24,61.63-18.35,87.87-28.72c33.97-13.42,65.44-23.86,109.9-7.1c21.65,8.16,37.55,26.23,49.26,47.51
		c19.19,34.85,27.12,78.55,26.91,109.27C1272.39,1377.44,1270.37,1387.68,1269.26,1392.62L1269.26,1392.62z"/>
	<path class="st1" d="M1002.95,981.15c0.47,24.3,0.95,48.6,1.42,72.89c0.19,9.76,8.27,17.52,18.02,17.33
		c9.76-0.19,17.53-8.27,17.34-18.02c-0.48-24.3-0.95-48.6-1.42-72.89c-0.19-9.76-8.27-17.53-18.02-17.34
		C1010.52,963.32,1002.76,971.39,1002.95,981.15L1002.95,981.15z"/>
	<path class="st1" d="M1023.53,1095.29c11.89,0,21.54,9.65,21.54,21.54c0,11.89-9.65,21.54-21.54,21.54
		c-11.89,0-21.54-9.65-21.54-21.54C1001.99,1104.94,1011.65,1095.29,1023.53,1095.29L1023.53,1095.29z"/>
</g>
</svg>
