<svg width="29" height="32" viewBox="0 0 29 32" fill="none" xmlns="http://www.w3.org/2000/svg">
<g clipPath="url(#clip0_40_1626)">
<path d="M8.93869 18.3198C8.93869 19.7573 7.77545 20.9205 6.338 20.9205C4.90054 20.9205 3.7373 19.7573 3.7373 18.3198C3.7373 16.8823 4.90054 15.7191 6.338 15.7191C7.77545 15.7191 8.93869 16.8823 8.93869 18.3198Z" stroke="white" stroke-linecap="round" strokeLinecap="round"/>
<path d="M12.234 25.2329C12.234 24.0697 11.2919 23.1232 10.1242 23.1232H2.55213C1.38889 23.1232 0.442383 24.0653 0.442383 25.2329V31.5621" stroke="white" stroke-linecap="square" strokeLinecap="bevel"/>
<path d="M3.69336 28.0194V31.5578" stroke="white" strokeLinecap="square" strokeLinecap="bevel"/>
<path d="M24.7287 18.3198C24.7287 19.7573 23.5655 20.9205 22.128 20.9205C20.6906 20.9205 19.5273 19.7573 19.5273 18.3198C19.5273 16.8823 20.6906 15.7191 22.128 15.7191C23.5655 15.7191 24.7287 16.8823 24.7287 18.3198Z" stroke="white" stroke-linecap="round" strokeLinecap="round"/>
<path d="M28.0235 31.5578V25.2285C28.0235 24.0653 27.0814 23.1188 25.9138 23.1188H18.3373C17.174 23.1188 16.2275 24.0609 16.2275 25.2285" stroke="white" stroke-linecap="square" strokeLinecap="bevel"/>
<path d="M24.7729 31.5578V28.0194" stroke="white" stroke-linecap="square" strokeLinecap="bevel"/>
<path d="M16.8337 23.1232C16.8337 24.5606 15.6705 25.7238 14.233 25.7238C12.7956 25.7238 11.6323 24.5606 11.6323 23.1232C11.6323 21.6857 12.7956 20.5225 14.233 20.5225C15.6705 20.5225 16.8337 21.6857 16.8337 23.1232Z" fill="#2B2B2B" stroke="#2B2B2B" stroke-linecap="round" strokeLinecap="round"/>
<path d="M16.8337 23.1232C16.8337 24.5606 15.6705 25.7238 14.233 25.7238C12.7956 25.7238 11.6323 24.5606 11.6323 23.1232C11.6323 21.6857 12.7956 20.5225 14.233 20.5225C15.6705 20.5225 16.8337 21.6857 16.8337 23.1232Z" stroke="white" stroke-linecap="round" strokeLinecap="round"/>
<path d="M20.129 31.5578V30.0363C20.129 28.873 19.1869 27.9265 18.0193 27.9265H10.4428C9.27952 27.9265 8.33301 28.8686 8.33301 30.0363V31.5578" stroke="white" stroke-linecap="square" strokeLinecap="bevel"/>
<path d="M12.8886 12.4949L11.1857 18.3287C11.0752 18.7135 11.5396 18.9966 11.8315 18.7224L18.3597 12.4949H15.1089L16.8117 6.661C16.9223 6.27621 16.4579 5.99314 16.166 6.26736L9.6377 12.4949" stroke="white" stroke-linecap="round" strokeLinecap="round"/>
<path d="M21.3538 12.4948C23.5476 12.4948 25.3212 10.7168 25.3212 8.5274C25.3212 6.33805 23.5431 4.56002 21.3538 4.56002C21.2653 4.56002 21.1813 4.58214 21.0973 4.58656C20.8628 2.26451 18.9212 0.442261 16.5372 0.442261C14.5027 0.442261 12.7998 1.76914 12.1895 3.59582C11.7604 3.43659 11.3049 3.33929 10.8228 3.33929C8.79705 3.33929 7.14287 4.8652 6.90403 6.82899C6.63423 6.74496 6.35117 6.68746 6.05041 6.68746C4.44488 6.68746 3.14453 7.9878 3.14453 9.59333C3.14453 11.1989 4.44488 12.4992 6.05041 12.4992H9.64626" stroke="white" stroke-linecap="round" strokeLinecap="round"/>
</g>
<defs>
<clipPath id="clip0_40_1626">
<rect width="28.4661" height="32" fill="white"/>
</clipPath>
</defs>
</svg>
