<svg version="1.1" id="Layer_1" xmlns="http://www.w3.org/2000/svg" xmlns:xlink="http://www.w3.org/1999/xlink" x="0px" y="0px"
	 viewBox="0 0 2000 2000" style="enable-background:new 0 0 2000 2000;" xml:space="preserve">
<g>
	<g>
		<path className="st0" d="M1031.53,443.68c-306.73,0-556.3,249.57-556.3,556.34c0,306.73,249.57,556.3,556.3,556.3
			c306.77,0,556.34-249.57,556.34-556.3C1587.87,693.25,1338.3,443.68,1031.53,443.68z M1031.53,1519
			c-286.15,0-518.97-232.82-518.97-518.97c0-286.2,232.82-519.02,518.97-519.02c286.2,0,519.02,232.82,519.02,519.02
			C1550.54,1286.17,1317.72,1519,1031.53,1519z"/>
	</g>
	<path className="st1" d="M1009.23,664.37c-1.13,126.87-2.26,253.73-3.39,380.59c-0.09,10.3,8.19,18.74,18.49,18.83
		c10.3,0.09,18.74-8.19,18.83-18.49c1.13-126.86,2.26-253.73,3.39-380.6c0.09-10.3-8.2-18.73-18.5-18.83
		C1017.76,645.78,1009.32,654.07,1009.23,664.37L1009.23,664.37z"/>
	<path className="st1" d="M1298.38,1139.28c-88.85-37.15-177.7-74.3-266.55-111.45c-9.5-3.97-20.44,0.52-24.42,10.02
		c-3.98,9.5,0.52,20.44,10.02,24.42c88.85,37.15,177.7,74.3,266.55,111.45c9.5,3.97,20.45-0.52,24.42-10.02
		C1312.37,1154.2,1307.88,1143.26,1298.38,1139.28L1298.38,1139.28z"/>
</g>
</svg>
