<svg width="32" height="26" viewBox="0 0 32 26" fill="none" xmlns="http://www.w3.org/2000/svg">
<g clipPath="url(#clip0_40_1673)">
<path d="M24.7046 4.18921V6.02893" stroke="white" strokeLinecap="round" strokeLinejoin="round"/>
<path d="M21.6943 6.37537L23.4544 6.93684" stroke="white" strokeLinecap="round" strokeLinejoin="round"/>
<path d="M22.8452 9.9114L23.9323 8.41016" stroke="white" strokeLinecap="round" strokeLinejoin="round"/>
<path d="M26.5646 9.9114L25.4775 8.41016" stroke="white" strokeLinecap="round" strokeLinejoin="round"/>
<path d="M27.7112 6.37537L25.9551 6.93684" stroke="white" strokeLinecap="round" strokeLinejoin="round"/>
<path d="M31.5979 1.28223H6.86523V12.6869H31.5979V1.28223Z" stroke="white" strokeLinecap="round" strokeLinejoin="round"/>
<path d="M6.86522 5.14878C5.73431 5.14878 4.81445 4.28069 4.81445 3.21349C4.81445 2.14629 5.73431 1.2782 6.86522 1.2782C7.99614 1.2782 8.916 2.14629 8.916 3.21349C8.916 4.28069 7.99614 5.14878 6.86522 5.14878Z" fill="#2B2B2B" stroke="#2B2B2B" strokeLinecap="round" strokeLinejoin="round"/>
<path d="M4.68292 24.223L4.06172 16.3026C4.02588 16.3026 3.99004 16.2947 3.9542 16.2907C3.14186 16.1792 1.81184 15.562 1.74415 14.8572L1.28223 9.01146C1.28223 8.96367 1.28223 8.92783 1.28223 8.9119C1.28223 7.74515 2.25385 6.77751 3.44848 6.74963H17.8318C17.8318 7.79294 16.9238 8.8243 15.8208 8.8243H10.2658" fill="#2B2B2B"/>
<path d="M4.68292 24.223L4.06172 16.3026C4.02588 16.3026 3.99004 16.2947 3.9542 16.2907C3.14186 16.1792 1.81184 15.562 1.74415 14.8572L1.28223 9.01146C1.28223 8.96367 1.28223 8.92783 1.28223 8.9119C1.28223 7.74515 2.25385 6.77751 3.44848 6.74963H17.8318C17.8318 7.79294 16.9238 8.8243 15.8208 8.8243H10.2658" stroke="#2B2B2B" strokeLinecap="round" strokeLinejoin="round"/>
<path d="M10.2658 8.82031L9.05127 24.223" stroke="#2B2B2B" strokeLinecap="round" strokeLinejoin="round"/>
<path d="M6.86522 5.14878C5.73431 5.14878 4.81445 4.28069 4.81445 3.21349C4.81445 2.14629 5.73431 1.2782 6.86522 1.2782C7.99614 1.2782 8.916 2.14629 8.916 3.21349C8.916 4.28069 7.99614 5.14878 6.86522 5.14878Z" stroke="white" strokeLinecap="round" strokeLinejoin="round"/>
<path d="M10.2658 8.82027L9.0433 24.3225C9.02339 24.5853 8.78845 24.7884 8.5097 24.7884H5.22449C4.94574 24.7884 4.7108 24.5853 4.69089 24.3225L4.06172 16.3026C4.06172 16.3026 4.04977 16.2946 4.04579 16.2867C2.89895 16.3305 1.85565 15.7929 1.74415 14.8531L1.28223 9.00743C1.28223 8.95964 1.28223 8.9238 1.28223 8.90788C1.28223 7.74113 2.25385 6.77348 3.44848 6.74561H17.8318C17.8318 7.78891 16.9238 8.82027 15.8208 8.82027H10.2658Z" fill="#2B2B2B" stroke="white" strokeLinecap="round" strokeLinejoin="round"/>
<path d="M4.06162 16.2987L3.54395 9.69641" stroke="white" strokeLinecap="round" strokeLinejoin="round"/>
<path d="M16.8763 18.8312C15.7772 18.8312 14.8853 17.987 14.8853 16.9517C14.8853 15.9163 15.7772 15.0721 16.8763 15.0721C17.9753 15.0721 18.8673 15.9163 18.8673 16.9517C18.8673 17.987 17.9753 18.8312 16.8763 18.8312Z" stroke="white" strokeLinecap="round" strokeLinejoin="round"/>
<path d="M21.7822 24.7885V22.3275C21.7822 21.2564 20.8624 20.3843 19.7235 20.3843H14.0211C12.8823 20.3843 11.9624 21.2524 11.9624 22.3275V24.7885" stroke="white" strokeMiterLimit="10" strokeLinecap="square"/>
<path d="M26.6956 18.8312C25.5966 18.8312 24.7046 17.987 24.7046 16.9517C24.7046 15.9163 25.5966 15.0721 26.6956 15.0721C27.7947 15.0721 28.6867 15.9163 28.6867 16.9517C28.6867 17.987 27.7947 18.8312 26.6956 18.8312Z" stroke="white" strokeLinecap="round" strokeLinejoin="round"/>
<path d="M31.6015 24.7885V22.3275C31.6015 21.2564 30.6817 20.3843 29.5428 20.3843H23.8405C22.7016 20.3843 21.7817 21.2524 21.7817 22.3275V24.7885" stroke="white" strokeMiterLimit="10" strokeLinecap="square"/>
</g>
<defs>
<clipPath id="clip0_40_1673">
<rect width="32" height="25.5012" fill="white"/>
</clipPath>
</defs>
</svg>
