<svg width="48" height="44" viewBox="0 0 48 44" fill="none" xmlns="http://www.w3.org/2000/svg">
<g clipPath="url(#clip0_40_1481)">
<path d="M40.5963 43.6274H3.13043C1.40422 43.6274 0 42.2231 0 40.4969V8.31108C0 6.57791 1.41019 5.16772 3.14335 5.16772H40.5963C42.3225 5.16772 43.7267 6.57195 43.7267 8.29816V40.4969C43.7267 42.2231 42.3225 43.6274 40.5963 43.6274ZM3.14335 6.65841C2.23205 6.65841 1.49068 7.39977 1.49068 8.31108V40.4969C1.49068 41.4013 2.22609 42.1367 3.13043 42.1367H40.5963C41.5006 42.1367 42.236 41.4013 42.236 40.4969V8.29816C42.236 7.39381 41.5006 6.65841 40.5963 6.65841H3.14335Z" fill="white"/>
<path d="M39.5029 12.7204H4.22337C3.81194 12.7204 3.47803 12.3865 3.47803 11.9751C3.47803 11.5636 3.81194 11.2297 4.22337 11.2297H39.5029C39.9143 11.2297 40.2482 11.5636 40.2482 11.9751C40.2482 12.3865 39.9143 12.7204 39.5029 12.7204Z" fill="white"/>
<path d="M4.57166 9.93799C5.06563 9.93799 5.46607 9.53755 5.46607 9.04358C5.46607 8.54961 5.06563 8.14917 4.57166 8.14917C4.07769 8.14917 3.67725 8.54961 3.67725 9.04358C3.67725 9.53755 4.07769 9.93799 4.57166 9.93799Z" fill="white"/>
<path d="M8.04968 9.93799C8.54365 9.93799 8.94409 9.53755 8.94409 9.04358C8.94409 8.54961 8.54365 8.14917 8.04968 8.14917C7.55571 8.14917 7.15527 8.54961 7.15527 9.04358C7.15527 9.53755 7.55571 9.93799 8.04968 9.93799Z" fill="white"/>
<path d="M11.5277 9.93799C12.0217 9.93799 12.4221 9.53755 12.4221 9.04358C12.4221 8.54961 12.0217 8.14917 11.5277 8.14917C11.0337 8.14917 10.6333 8.54961 10.6333 9.04358C10.6333 9.53755 11.0337 9.93799 11.5277 9.93799Z" fill="white"/>
<path d="M45.8218 37.2691C45.5346 37.2691 45.2603 37.1021 45.138 36.8209C44.9741 36.4432 45.146 36.004 45.5236 35.84C46.1229 35.5796 46.5095 34.9883 46.5095 34.3354V3.13043C46.5095 2.22609 45.7741 1.49068 44.8697 1.49068H7.41679C6.50549 1.49068 5.76412 2.23205 5.76412 3.14335C5.76412 3.55478 5.43021 3.8887 5.01878 3.8887C4.60735 3.8887 4.27344 3.55478 4.27344 3.14335C4.27344 1.41019 5.68362 0 7.41679 0H44.8697C46.5959 0 48.0001 1.40422 48.0001 3.13043V34.3354C48.0001 35.5816 47.2618 36.7086 46.1189 37.2065C46.0225 37.2482 45.9211 37.2691 45.8218 37.2691Z" fill="white"/>
<path d="M38.8075 26.2361H5.41624C5.00481 26.2361 4.6709 25.9021 4.6709 25.4907V16.5466C4.6709 16.1352 5.00481 15.8013 5.41624 15.8013H38.8075C39.219 15.8013 39.5529 16.1352 39.5529 16.5466V25.4907C39.5529 25.9021 39.219 26.2361 38.8075 26.2361ZM6.16158 24.7454H38.0622V17.292H6.16158V24.7454Z" fill="white"/>
<path d="M18.5343 39.1552H5.41624C5.00481 39.1552 4.6709 38.8213 4.6709 38.4099V29.4658C4.6709 29.0544 5.00481 28.7205 5.41624 28.7205H18.5343C18.9457 28.7205 19.2796 29.0544 19.2796 29.4658V38.4099C19.2796 38.8213 18.9457 39.1552 18.5343 39.1552ZM6.16158 37.6646H17.7889V30.2111H6.16158V37.6646Z" fill="white"/>
<path d="M38.3106 30.2111H23.3044C22.893 30.2111 22.5591 29.8772 22.5591 29.4658C22.5591 29.0544 22.893 28.7205 23.3044 28.7205H38.3106C38.7221 28.7205 39.056 29.0544 39.056 29.4658C39.056 29.8772 38.7221 30.2111 38.3106 30.2111Z" fill="white"/>
<path d="M38.3106 34.882H23.3044C22.893 34.882 22.5591 34.5481 22.5591 34.1367C22.5591 33.7253 22.893 33.3914 23.3044 33.3914H38.3106C38.7221 33.3914 39.056 33.7253 39.056 34.1367C39.056 34.5481 38.7221 34.882 38.3106 34.882Z" fill="white"/>
<path d="M31.1554 39.1552H23.3044C22.893 39.1552 22.5591 38.8213 22.5591 38.4099C22.5591 37.9985 22.893 37.6646 23.3044 37.6646H31.1554C31.5668 37.6646 31.9007 37.9985 31.9007 38.4099C31.9007 38.8213 31.5668 39.1552 31.1554 39.1552Z" fill="white"/>
</g>
<defs>
<clipPath id="clip0_40_1481">
<rect width="48" height="43.6273" fill="white"/>
</clipPath>
</defs>
</svg>
