<svg xmlns="http://www.w3.org/2000/svg" viewBox="0 0 24 24"><defs><style>.cls-1{fill:#fff;}</style></defs><g id="Слой_2" data-name="Слой 2"><g id="_1" data-name="1"><path class="cls-1" d="M17.11,24H6.89a2.8,2.8,0,0,1-2.8-2.81V6.89a2.8,2.8,0,0,1,2.8-2.8h14.3A2.8,2.8,0,0,1,24,6.89V17.11a.79.79,0,0,1-.22.54l-6.13,6.13A.79.79,0,0,1,17.11,24ZM6.89,5.62A1.27,1.27,0,0,0,5.62,6.89v14.3a1.27,1.27,0,0,0,1.27,1.28h9.9l5.68-5.68V6.89a1.27,1.27,0,0,0-1.28-1.27ZM23.23,17.11h0Z"/><path class="cls-1" d="M17.11,24a.8.8,0,0,1-.3-.06.78.78,0,0,1-.47-.71V17.11a.76.76,0,0,1,.77-.77h6.12a.78.78,0,0,1,.71.47.79.79,0,0,1-.16.84l-6.13,6.13A.79.79,0,0,1,17.11,24Zm.76-6.13v3.51l3.51-3.51Z"/><path class="cls-1" d="M2.81,19.91A2.8,2.8,0,0,1,0,17.11V2.81A2.81,2.81,0,0,1,2.81,0h14.3a2.8,2.8,0,0,1,2.8,2.81.76.76,0,0,1-.76.76.77.77,0,0,1-.77-.76,1.27,1.27,0,0,0-1.27-1.28H2.81A1.28,1.28,0,0,0,1.53,2.81v14.3a1.27,1.27,0,0,0,1.28,1.27.77.77,0,0,1,.76.77A.76.76,0,0,1,2.81,19.91Z"/></g></g></svg>